# xmcd
#
# Track frame offsets: 
#        150
#        12530
#        25324
#        39247
#        51933
#        63703
#        76640
#        91353
#        103160
#        116278
#        128329
#        140524
#        153201
#        165968
#        179781
#        188976
#        202613
#        215766
#        229320
#        241752
#
# Disc length: 3416 seconds
#
# Revision: 0
# Processed by: cddbd v1.5.2PL0 Copyright (c) Steve Scherf et al.
# Submitted via: ExactAudioCopy v0.99pb5
#
DISCID=050d5614
DTITLE=Tex Ritter - The Essential Recordings\\CD 1
DYEAR=2014
DGENRE=Country
TTITLE0=High Noon
TTITLE1=Sam Hall
TTITLE2=Get Along Little Doggies
TTITLE3=Nobody's Darling But Mine
TTITLE4=The Hill Of Old Wyomin'
TTITLE5=Lady Killing Cowboy
TTITLE6=(Take Me Back To) My Boots And Saddle
TTITLE7=My Brown Eyed Texas Rose
TTITLE8=Billy The Kid
TTITLE9=San Antonio Rose
TTITLE10=Sing Cowboy Sing
TTITLE11=(I've Got Spurs That) Jingle Jingle Jingle
TTITLE12=I'm Wastin' My Tears On You
TTITLE13=Long Time Gone
TTITLE14=Froggie Went A Courtin'
TTITLE15=Boll Weevil
TTITLE16=When You Leave Don't Slam The Door
TTITLE17=Blood On The Saddle
TTITLE18=You Two Timed Me One Time Too Often
TTITLE19=Rye Whiskey
EXTD=
EXTT0=
EXTT1=
EXTT2=
EXTT3=
EXTT4=
EXTT5=
EXTT6=
EXTT7=
EXTT8=
EXTT9=
EXTT10=
EXTT11=
EXTT12=
EXTT13=
EXTT14=
EXTT15=
EXTT16=
EXTT17=
EXTT18=
EXTT19=
PLAYORDER=
